<?xml version="1.0" encoding="utf-8"?>
<!-- Generator: Adobe Illustrator 22.0.1, SVG Export Plug-In . SVG Version: 6.00 Build 0)  -->
<svg version="1.1" id="Layer_1" xmlns="http://www.w3.org/2000/svg" xmlns:xlink="http://www.w3.org/1999/xlink" x="0px" y="0px"
	 viewBox="0 0 122.9 72.1" style="enable-background:new 0 0 122.9 72.1;" xml:space="preserve">
<style type="text/css">
	.st0{fill:#FFFFFF;}
</style>
<title>movers</title>
<path class="st0" d="M48.8,31.8c-0.7,0-1.3,0.5-1.4,1.2c0,0.7,0.5,1.3,1.2,1.4c0.7,0,1.3-0.5,1.4-1.2c0,0,0-0.1,0-0.1
	C50,32.4,49.5,31.9,48.8,31.8L48.8,31.8z"/>
<path d="M98.2,61.1c-0.1,0.5-0.1,0.9-0.1,1.4c0,5.3,4.3,9.6,9.6,9.6s9.6-4.3,9.6-9.6c0-0.6-0.1-1.2-0.2-1.8c3.2-0.1,5.7-2.7,5.7-5.8
	V36.1l-11.9-12.8H94.6v28.5H53.2c-1.3,0-2.4,1-2.4,2.3v4.7c0,1.3,1.1,2.3,2.4,2.3H58c-0.9,5.2,2.6,10,7.8,10.9s10-2.6,10.9-7.8
	c0.1-0.5,0.1-1.1,0.1-1.6c0-0.5,0-1-0.1-1.5H98.2z M26.2,2.6H22c-0.2,0-0.3,0.2-0.3,0.3l-0.6,2.2c0,0.2,0.1,0.3,0.3,0.3h3.1
	c-0.3,0.8-0.4,1.7-0.4,2.6c-0.2,4.3,3.2,7.8,7.4,8c4.3,0.2,7.8-3.2,8-7.4c0-0.2,0-0.4,0-0.6c0.1-4.3-3.3-7.9-7.7-8c0,0,0,0,0,0
	C29.7,0,27.6,0.9,26.2,2.6z M5.2,14.4v9.9c-0.9,0.7-1.6,1.7-1.9,2.8L0,25l0.1-13.8L5.2,14.4L5.2,14.4z M7.3,9.9l5,2.8l-6.5,0.8
	l-4.6-2.9L7.3,9.9L7.3,9.9z M6.1,23.6v-9.1l6.7-0.9l0.2,6.4l2.4-1.6l2.4,1.3l-0.5-6.7l4-0.5v4.9c-1.5,0.9-2.8,2-3.8,3.4
	c-0.5,0.6-1,1.1-1.4,1.6c-0.1,0.1-0.1,0.1-0.2,0.2c-1,1.2-4.6,0.9-6.9,0.7c-0.9-0.1,1.2,0.1-0.5,0C7.8,23.1,6.9,23.3,6.1,23.6
	L6.1,23.6z M16.7,12.1l-4.8-2.9l2-0.2l6.1,2.7L16.7,12.1L16.7,12.1z M38.9,41.5l1.4,9.9l9.7-6.3V21.4c0-1.7,1.3-3,3-3h35.8
	c1.7,0,3,1.3,3,3v28H53.9l-33,21.1h-9.9l11.6-7.5c-0.1-0.5-0.1-1-0.1-1.5l1-10.9l1-11c-1.6-4.3-0.2-7.1-0.3-12.2
	c-2.9,2.9-5.1,5-9.4,5.1c-1.4,0-3.6-0.2-5-0.3C8.2,32,7,32.1,5.9,30.6c-1.7-2.4,0.5-5.2,2.7-4.7c2.4,0.2,6.8,0.8,8.4-1.3
	c1.7-1.6,3-3.9,5.2-4.6c12.5-4.1,15.6-2.5,16.8,2c0.4,4.5,0.6,9.1,0.6,13.6C39.6,37.6,39.4,39.5,38.9,41.5L38.9,41.5z M33.3,56
	c-0.1-0.2-0.2-0.5-0.2-0.8l-1.3-11.9l-1.3,14.4L33.3,56z M63.7,62.6c0,2,1.6,3.6,3.6,3.6c2,0,3.6-1.6,3.6-3.6l0,0
	c0-2-1.6-3.6-3.6-3.6C65.3,59,63.7,60.6,63.7,62.6z M111,60.8L111,60.8v-0.1l0,0l0,0v0l0,0l0,0l0,0l0,0c0,0-0.1-0.1-0.1-0.2l0,0l0,0
	l0,0l0,0l0,0l0,0l0,0l-0.1-0.1l0,0l0,0l0,0l0,0l0,0l0,0l0,0l0,0l0,0l0,0l0,0l0,0l0,0l0,0l0,0l0,0l0,0l0,0l0,0l0,0l0,0l0,0l0,0l0,0
	l0,0l0,0l0,0l0,0l0,0h-0.1l0,0l0,0l0,0l0,0h-0.1l0,0h-0.1l0,0l0,0l0,0l0,0h-0.1l0,0l0,0h-0.1L109,59l0,0l0,0l0,0l0,0h-0.1h-0.1h-0.1
	l0,0h-0.1h-0.1h-1.4h-0.1h-0.1H107l0,0h-0.1l0,0h-0.1l0,0h-0.1h-0.1h-0.1l0,0h-0.1l0,0l0,0h-0.1l0,0h-0.1l0,0l0,0l0,0l0,0h-0.1l0,0
	l0,0l0,0l0,0h-0.1l0,0h-0.1l0,0l0,0l0,0l0,0l0,0l0,0l0,0l0,0l0,0l0,0l0,0h-0.1l0,0l0,0l0,0l0,0l0,0l0,0l0,0l0,0l0,0v0l0,0l0,0l0,0
	l0,0l0,0l0,0l0,0l0,0l0,0v0l0,0l0,0l0,0l0,0l0,0l0,0l0,0l0,0l0,0l0,0l0,0l0,0v0.1l0,0l0,0l0,0l0,0v0l0,0l0,0l0,0l0,0v0.1
	c-0.3,0.5-0.4,1.1-0.4,1.7c0,2,1.7,3.7,3.7,3.6s3.7-1.7,3.6-3.7c0-0.5-0.1-1.1-0.4-1.6L111,60.8z M110.9,28.8l6,7.2v2.6h-16.3v-9.8
	L110.9,28.8z"/>
</svg>
